<?xml version="1.0" encoding="UTF-8"?>
<svg version="1.1" xmlns="http://www.w3.org/2000/svg" width="16" height="16">
<path d="M0 0 C2.67727923 1.66175952 2.96566835 2.86553436 3.75 5.9375 C3.97530567 8.6974945 4.03625115 10.45647445 3 13 C-0.12706959 14.5635348 -3.57982443 14.39958487 -7 14 C-7.99 13.34 -8.98 12.68 -10 12 C-10.38660996 7.8246124 -10.43648441 4.51936637 -8 1 C-5.20129973 -0.39935013 -3.09501208 -0.25265405 0 0 Z " fill="#B6B381" transform="translate(11,1)"/>
<path d="M0 0 C2.67727923 1.66175952 2.96566835 2.86553436 3.75 5.9375 C3.97530567 8.6974945 4.03625115 10.45647445 3 13 C-0.12706959 14.5635348 -3.57982443 14.39958487 -7 14 C-7.99 13.34 -8.98 12.68 -10 12 C-10.38660996 7.8246124 -10.43648441 4.51936637 -8 1 C-5.20129973 -0.39935013 -3.09501208 -0.25265405 0 0 Z M-7 2 C-8.10717914 5.32153743 -7.9099978 7.63300816 -7 11 C-5.88833136 12.33187793 -5.88833136 12.33187793 -3.0625 12.1875 C0.10892859 12.33278733 0.10892859 12.33278733 2 10 C2.02375926 8.0068433 2.02375926 8.0068433 1.625 5.875 C1.41875 4.59625 1.2125 3.3175 1 2 C-1.64 2 -4.28 2 -7 2 Z " fill="#649D9B" transform="translate(11,1)"/>
<path d="M0 0 C1.9451 2.91765 2.45276317 4.62537285 3 8 C5.31 8 7.62 8 10 8 C10 8.99 10 9.98 10 11 C8.741875 11.04125 7.48375 11.0825 6.1875 11.125 C5.47980469 11.14820313 4.77210937 11.17140625 4.04296875 11.1953125 C2 11 2 11 -1 9 C-1.4375 2.875 -1.4375 2.875 0 0 Z " fill="#588784" transform="translate(2,4)"/>
<path d="M0 0 C0.33 0.99 0.66 1.98 1 3 C3.64 3 6.28 3 9 3 C9.33 2.01 9.66 1.02 10 0 C9.125 4.875 9.125 4.875 8 6 C5.0625 6.1875 5.0625 6.1875 2 6 C1.34 5.34 0.68 4.68 0 4 C0 2.68 0 1.36 0 0 Z " fill="#CFD0B4" transform="translate(3,7)"/>
</svg>
